<svg width="950" height="127" viewBox="0 0 950 127" fill="none" xmlns="http://www.w3.org/2000/svg">
<rect width="950" height="127" fill="black"/>
<path d="M238.875 52.709C238.875 52.9668 238.74 53.0957 238.471 53.0957L236.238 53.043L236.203 75.3145C236.203 75.6309 236.062 75.8008 235.781 75.8242L231.527 76.0527C231.375 76.0527 231.24 75.9238 231.123 75.666L220.77 52.7266L221.191 71.957L223.951 71.7812C224.115 71.7812 224.209 71.8926 224.232 72.1152L224.531 75.5957C224.508 75.8301 224.367 75.9473 224.109 75.9473L215.602 75.8945C215.438 75.8945 215.332 75.7539 215.285 75.4727L214.969 72.5371C214.992 72.3145 215.086 72.2031 215.25 72.2031L218.01 72.1328V53.1309L214.793 53.2715C214.664 53.2598 214.582 53.2305 214.547 53.1836C214.523 53.125 214.5 53.0254 214.477 52.8848L214.67 49.791C214.693 49.5684 214.834 49.4453 215.092 49.4219L222.826 49.0352C223.131 49.0586 223.348 49.2227 223.477 49.5273L233.443 71.9219L232.986 52.9551L230.262 52.8672C230.133 52.8672 230.051 52.8379 230.016 52.7793C229.98 52.7207 229.957 52.6211 229.945 52.4805L230.051 49.5625C230.074 49.3164 230.215 49.1934 230.473 49.1934L238.33 49.1582C238.459 49.1699 238.541 49.2051 238.576 49.2637C238.611 49.3105 238.635 49.4102 238.646 49.5625L238.875 52.709ZM262.148 62.7988C262.148 71.7168 258.861 76.1758 252.287 76.1758C248.854 76.1758 246.252 75.0508 244.482 72.8008C242.725 70.5391 241.846 67.2051 241.846 62.7988C241.846 56.0137 243.703 51.6953 247.418 49.8438C248.66 49.2344 250.113 48.9297 251.777 48.9297C253.453 48.9297 254.93 49.1875 256.207 49.7031C257.496 50.2188 258.58 51.0332 259.459 52.1465C261.252 54.4199 262.148 57.9707 262.148 62.7988ZM258.176 62.5703C258.176 60.7539 258.035 59.2012 257.754 57.9121C257.473 56.623 257.057 55.6094 256.506 54.8711C255.967 54.1328 255.305 53.6289 254.52 53.3594C253.734 53.0781 252.809 52.9375 251.742 52.9375C250.676 52.9375 249.756 53.1367 248.982 53.5352C248.209 53.9336 247.582 54.5371 247.102 55.3457C246.223 56.8574 245.783 59.3184 245.783 62.7285C245.783 66.209 246.334 68.6875 247.436 70.1641C248.455 71.5117 250.113 72.1855 252.41 72.1855C254.508 72.1855 256.008 71.4414 256.91 69.9531C257.754 68.5234 258.176 66.0625 258.176 62.5703ZM268.336 52.9199C267.621 52.9668 266.795 53.0371 265.857 53.1309C265.729 53.1309 265.646 53.1016 265.611 53.043C265.576 52.9844 265.553 52.8848 265.541 52.7441L265.295 49.4746C265.307 49.334 265.342 49.2461 265.4 49.2109C265.471 49.1641 265.576 49.1289 265.717 49.1055C266.877 49.082 267.885 49.0586 268.74 49.0352C269.607 49.0117 270.357 48.9941 270.99 48.9824C271.635 48.9707 272.18 48.9648 272.625 48.9648C273.082 48.9531 273.475 48.9473 273.803 48.9473C274.143 48.9355 274.441 48.9297 274.699 48.9297H275.438C278.93 48.9297 281.52 49.8438 283.207 51.6719C285.164 53.7812 286.143 57.2852 286.143 62.1836C286.143 66.8125 285.152 70.3633 283.172 72.8359C281.285 75.168 278.678 76.334 275.35 76.334C271.857 76.334 268.67 76.1875 265.787 75.8945C265.588 75.8828 265.482 75.7422 265.471 75.4727L265.682 72.3613C265.705 72.1738 265.799 72.0625 265.963 72.0273L267.879 72.168L268.336 52.9199ZM271.975 72.3965C272.959 72.4668 273.674 72.502 274.119 72.502H275.244C277.623 72.502 279.369 71.6758 280.482 70.0234C281.607 68.3711 282.17 65.9043 282.17 62.623C282.17 57.1855 280.863 53.9746 278.25 52.9902C277.406 52.6738 276.645 52.5156 275.965 52.5156C274.793 52.5156 273.533 52.5566 272.186 52.6387L271.975 72.3965ZM310.383 76.7207C310.336 76.9902 310.213 77.125 310.014 77.125L306.709 77.0547C306.451 77.0547 306.322 76.9023 306.322 76.5977L306.287 75.5254L290.59 75.9648C290.32 75.9648 290.18 75.8242 290.168 75.543L290.273 72.3086C290.273 72.1328 290.367 72.0215 290.555 71.9746L292.752 72.2734L292.611 53.1309L290.396 53.3242C290.186 53.3242 290.08 53.1953 290.08 52.9375L290.273 49.7383C290.297 49.5156 290.438 49.3926 290.695 49.3691L308.256 48.7012C308.607 48.7246 308.783 48.8828 308.783 49.1758L308.432 55.5918C308.432 55.8613 308.338 55.9961 308.15 55.9961L305.197 55.8906C305.033 55.8789 304.934 55.8379 304.898 55.7676C304.863 55.6973 304.84 55.5859 304.828 55.4336L304.723 52.4102L296.408 52.8496L296.531 61.041L305.162 60.4961C305.455 60.4961 305.613 60.6309 305.637 60.9004L305.76 63.8535C305.736 64.123 305.613 64.2578 305.391 64.2578L296.566 64.3809L296.689 72.4141L306.182 72.0977L306.111 69.7949C306.135 69.3613 306.381 69.1328 306.85 69.1094L309.697 69.1973C309.967 69.2207 310.102 69.3262 310.102 69.5137L310.383 76.7207ZM319.031 72.6426C319.172 72.9473 319.271 73.2754 319.33 73.627C319.4 73.9785 319.436 74.3066 319.436 74.6113C319.436 74.916 319.33 75.1973 319.119 75.4551C318.92 75.7012 318.65 75.9062 318.311 76.0703C317.607 76.4102 316.928 76.5801 316.271 76.5801C315.615 76.5801 315.164 76.4746 314.918 76.2637C314.672 76.0645 314.473 75.8125 314.32 75.5078C314.027 74.9219 313.881 74.3477 313.881 73.7852C313.881 73.2109 314.01 72.7949 314.268 72.5371C314.525 72.2793 314.842 72.0742 315.217 71.9219C315.861 71.6758 316.5 71.5527 317.133 71.5527C317.777 71.5527 318.217 71.6582 318.451 71.8691C318.697 72.0684 318.891 72.3262 319.031 72.6426ZM363.381 57.5605C363.182 57.5371 363.059 57.3965 363.012 57.1387L363.17 48.8945C363.17 48.6836 363.305 48.5781 363.574 48.5781L366.457 48.9297C366.691 48.9297 366.809 49.0645 366.809 49.334V49.791L380.291 49.6504L383.525 49.2988C383.783 49.2988 383.912 49.4277 383.912 49.6855L383.385 57.4727C383.361 57.6602 383.25 57.7539 383.051 57.7539L380.045 57.6133C379.904 57.5898 379.811 57.5547 379.764 57.5078C379.729 57.4492 379.705 57.3438 379.693 57.1914L379.746 52.8496L375.211 52.9199L375.51 72.0449L378.902 71.8516C379.09 71.8984 379.184 72.0098 379.184 72.1855L379.219 75.2969C379.195 75.5781 379.09 75.7188 378.902 75.7188L368.461 75.9473C368.203 75.9473 368.062 75.8301 368.039 75.5957L368.162 72.1152C368.162 71.8926 368.256 71.7812 368.443 71.7812L371.572 71.9746L371.256 53.0254L366.826 53.2715L366.844 56.998C366.832 57.2207 366.691 57.3379 366.422 57.3496L363.381 57.5605ZM407.766 76.7207C407.719 76.9902 407.596 77.125 407.396 77.125L404.092 77.0547C403.834 77.0547 403.705 76.9023 403.705 76.5977L403.67 75.5254L387.973 75.9648C387.703 75.9648 387.562 75.8242 387.551 75.543L387.656 72.3086C387.656 72.1328 387.75 72.0215 387.938 71.9746L390.135 72.2734L389.994 53.1309L387.779 53.3242C387.568 53.3242 387.463 53.1953 387.463 52.9375L387.656 49.7383C387.68 49.5156 387.82 49.3926 388.078 49.3691L405.639 48.7012C405.99 48.7246 406.166 48.8828 406.166 49.1758L405.814 55.5918C405.814 55.8613 405.721 55.9961 405.533 55.9961L402.58 55.8906C402.416 55.8789 402.316 55.8379 402.281 55.7676C402.246 55.6973 402.223 55.5859 402.211 55.4336L402.105 52.4102L393.791 52.8496L393.914 61.041L402.545 60.4961C402.838 60.4961 402.996 60.6309 403.02 60.9004L403.143 63.8535C403.119 64.123 402.996 64.2578 402.773 64.2578L393.949 64.3809L394.072 72.4141L403.564 72.0977L403.494 69.7949C403.518 69.3613 403.764 69.1328 404.232 69.1094L407.08 69.1973C407.35 69.2207 407.484 69.3262 407.484 69.5137L407.766 76.7207ZM424.852 75.4375C423.867 75.7656 422.625 75.9297 421.125 75.9297C419.625 75.9297 417.844 75.7422 415.781 75.3672L415.904 76.7734C415.904 76.9844 415.77 77.0898 415.5 77.0898L412.477 77.1777C412.031 77.1543 411.785 76.9258 411.738 76.4922L411.07 69.6895C411.07 69.4551 411.211 69.3262 411.492 69.3027L414.938 68.9863C415.16 68.9863 415.283 69.1211 415.307 69.3906L415.535 72.2383C417.223 72.4141 418.904 72.502 420.58 72.502C422.256 72.502 423.428 72.2207 424.096 71.6582C424.764 71.084 425.098 70.2227 425.098 69.0742C425.098 68.043 424.705 67.1992 423.92 66.543C423.51 66.1914 422.977 65.8457 422.32 65.5059L417.504 63.168C415.805 62.3594 414.639 61.7148 414.006 61.2344C413.373 60.7422 412.887 60.2617 412.547 59.793C411.867 58.8438 411.527 57.7305 411.527 56.4531C411.527 55.1641 411.727 54.0684 412.125 53.166C412.523 52.252 413.086 51.4668 413.812 50.8105C415.336 49.416 417.27 48.7188 419.613 48.7188C421.277 48.7188 423.082 48.9824 425.027 49.5098C426.527 49.0527 427.465 48.8242 427.84 48.8242C428.227 48.8242 428.432 48.9824 428.455 49.2988L428.104 56.5938C428.08 56.8633 427.986 56.998 427.822 56.998L424.869 56.8926C424.705 56.8809 424.605 56.8398 424.57 56.7695C424.535 56.6992 424.512 56.5879 424.5 56.4355L424.359 52.5684C422.965 52.2402 421.805 52.0762 420.879 52.0762C418.547 52.0762 416.959 52.7266 416.115 54.0273C415.811 54.4961 415.658 55.0527 415.658 55.6973C415.658 56.3301 415.811 56.8574 416.115 57.2793C416.42 57.7012 416.859 58.0996 417.434 58.4746C418.008 58.8379 418.711 59.207 419.543 59.582L422.426 60.9004C425.133 62.1543 426.938 63.2734 427.84 64.2578C428.824 65.3242 429.316 66.8184 429.316 68.7402C429.316 72.1973 427.828 74.4297 424.852 75.4375ZM432.428 57.5605C432.229 57.5371 432.105 57.3965 432.059 57.1387L432.217 48.8945C432.217 48.6836 432.352 48.5781 432.621 48.5781L435.504 48.9297C435.738 48.9297 435.855 49.0645 435.855 49.334V49.791L449.338 49.6504L452.572 49.2988C452.83 49.2988 452.959 49.4277 452.959 49.6855L452.432 57.4727C452.408 57.6602 452.297 57.7539 452.098 57.7539L449.092 57.6133C448.951 57.5898 448.857 57.5547 448.811 57.5078C448.775 57.4492 448.752 57.3438 448.74 57.1914L448.793 52.8496L444.258 52.9199L444.557 72.0449L447.949 71.8516C448.137 71.8984 448.23 72.0098 448.23 72.1855L448.266 75.2969C448.242 75.5781 448.137 75.7188 447.949 75.7188L437.508 75.9473C437.25 75.9473 437.109 75.8301 437.086 75.5957L437.209 72.1152C437.209 71.8926 437.303 71.7812 437.49 71.7812L440.619 71.9746L440.303 53.0254L435.873 53.2715L435.891 56.998C435.879 57.2207 435.738 57.3379 435.469 57.3496L432.428 57.5605ZM477.779 72.168C477.967 72.168 478.061 72.2793 478.061 72.502L477.832 75.4199C477.809 75.6543 477.668 75.7715 477.41 75.7715L467.32 75.8945C467.109 75.8945 467.004 75.7539 467.004 75.4727L467.039 72.3965C467.039 72.2207 467.133 72.1094 467.32 72.0625L470.08 72.3438V52.6562L467.338 52.8848C467.221 52.8848 467.115 52.8379 467.021 52.7441C466.939 52.6504 466.898 52.5332 466.898 52.3926L467.092 49.9316C467.115 49.6152 467.279 49.4336 467.584 49.3867C467.889 49.3281 468.287 49.2695 468.779 49.2109C469.283 49.1406 469.822 49.082 470.396 49.0352C470.982 48.9766 471.592 48.9238 472.225 48.877C472.869 48.8301 473.508 48.7891 474.141 48.7539C475.512 48.6953 476.848 48.666 478.148 48.666C479.449 48.666 480.727 48.8242 481.98 49.1406C483.246 49.457 484.301 49.9492 485.145 50.6172C486.82 51.9766 487.658 54.1211 487.658 57.0508C487.658 61.2227 485.707 63.7188 481.805 64.5391C480.621 64.7969 479.338 64.9258 477.955 64.9258C476.572 64.9258 475.201 64.8672 473.842 64.75V72.3965L477.779 72.168ZM473.842 61.5508C474.979 61.6562 476.092 61.709 477.182 61.709C478.271 61.709 479.186 61.6504 479.924 61.5332C480.674 61.4043 481.318 61.1641 481.857 60.8125C482.994 60.0859 483.562 58.8203 483.562 57.0156C483.562 53.8047 481.793 52.1992 478.254 52.1992C476.918 52.1992 475.447 52.252 473.842 52.3574V61.5508ZM511.195 76.7207C511.148 76.9902 511.025 77.125 510.826 77.125L507.521 77.0547C507.264 77.0547 507.135 76.9023 507.135 76.5977L507.1 75.5254L491.402 75.9648C491.133 75.9648 490.992 75.8242 490.98 75.543L491.086 72.3086C491.086 72.1328 491.18 72.0215 491.367 71.9746L493.564 72.2734L493.424 53.1309L491.209 53.3242C490.998 53.3242 490.893 53.1953 490.893 52.9375L491.086 49.7383C491.109 49.5156 491.25 49.3926 491.508 49.3691L509.068 48.7012C509.42 48.7246 509.596 48.8828 509.596 49.1758L509.244 55.5918C509.244 55.8613 509.15 55.9961 508.963 55.9961L506.01 55.8906C505.846 55.8789 505.746 55.8379 505.711 55.7676C505.676 55.6973 505.652 55.5859 505.641 55.4336L505.535 52.4102L497.221 52.8496L497.344 61.041L505.975 60.4961C506.268 60.4961 506.426 60.6309 506.449 60.9004L506.572 63.8535C506.549 64.123 506.426 64.2578 506.203 64.2578L497.379 64.3809L497.502 72.4141L506.994 72.0977L506.924 69.7949C506.947 69.3613 507.193 69.1328 507.662 69.1094L510.51 69.1973C510.779 69.2207 510.914 69.3262 510.914 69.5137L511.195 76.7207ZM523.781 75.7715C523.758 76.0059 523.617 76.123 523.359 76.123L514.5 76.0703C514.301 76.0703 514.195 75.9297 514.184 75.6484L514.57 72.1855C514.594 71.998 514.688 71.8867 514.852 71.8516L517.084 72.0098V53.0254C516.217 53.0957 515.607 53.1309 515.256 53.1309C514.904 53.1309 514.682 53.0898 514.588 53.0078C514.506 52.9141 514.453 52.791 514.43 52.6387L514.078 49.7559C514.102 49.4395 514.242 49.2578 514.5 49.2109C518.016 48.8477 521.49 48.666 524.924 48.666C529.717 48.666 532.699 50.1953 533.871 53.2539C534.281 54.2969 534.486 55.4629 534.486 56.752C534.486 58.0293 534.334 59.1016 534.029 59.9688C533.736 60.8242 533.32 61.5625 532.781 62.1836C531.703 63.4258 530.232 64.2285 528.369 64.5918L532.975 71.8691L536.086 71.6055C536.473 71.6289 536.666 71.8281 536.666 72.2031L536.684 74.9629C536.684 75.584 536.467 75.9062 536.033 75.9297L531.041 76.0527C530.807 76.0527 530.625 75.9355 530.496 75.7012L524.555 64.7852C523.219 64.7617 522.018 64.6973 520.951 64.5918L521.004 72.1328H523.377C523.564 72.1328 523.658 72.2441 523.658 72.4668L523.781 75.7715ZM525.592 52.3574C524.654 52.3574 523.072 52.4688 520.846 52.6914L520.916 61.4453C521.936 61.5039 522.996 61.5332 524.098 61.5332C525.199 61.5332 526.107 61.457 526.822 61.3047C527.549 61.1406 528.176 60.8828 528.703 60.5312C529.84 59.7695 530.408 58.5918 530.408 56.998C530.408 55.3926 530.004 54.2207 529.195 53.4824C528.398 52.7324 527.197 52.3574 525.592 52.3574ZM539.021 52.9551C538.857 52.9199 538.764 52.8086 538.74 52.6211L538.986 49.3867C538.998 49.1055 539.104 48.9648 539.303 48.9648L552.17 49.2637L552.152 48.332C552.152 48.0625 552.281 47.9102 552.539 47.875L555.316 47.6289C555.516 47.6289 555.639 47.7637 555.686 48.0332L556.635 55.416C556.635 55.6035 556.5 55.709 556.23 55.7324L553.031 55.9961C552.562 55.9961 552.316 55.7676 552.293 55.3105L552.24 52.8848L545.332 52.6914L545.209 61.0586L554.279 61.0234C554.49 61.0234 554.596 61.1348 554.596 61.3574L554.473 64.2051C554.449 64.4746 554.291 64.6094 553.998 64.6094L545.156 64.3809L545.051 72.2559L549.586 71.9922C549.832 71.9922 549.967 72.1211 549.99 72.3789L550.184 75.4727C550.172 75.625 550.148 75.7305 550.113 75.7891C550.078 75.8477 549.996 75.877 549.867 75.877L539.338 76.0879C539.197 76.0645 539.092 76.0352 539.021 76C538.963 75.9531 538.928 75.8594 538.916 75.7188L538.723 72.5195C538.723 72.2852 538.828 72.1562 539.039 72.1328L541.254 72.2383L541.395 52.7617L539.021 52.9551ZM580.031 62.7988C580.031 71.7168 576.744 76.1758 570.17 76.1758C566.736 76.1758 564.135 75.0508 562.365 72.8008C560.607 70.5391 559.729 67.2051 559.729 62.7988C559.729 56.0137 561.586 51.6953 565.301 49.8438C566.543 49.2344 567.996 48.9297 569.66 48.9297C571.336 48.9297 572.812 49.1875 574.09 49.7031C575.379 50.2188 576.463 51.0332 577.342 52.1465C579.135 54.4199 580.031 57.9707 580.031 62.7988ZM576.059 62.5703C576.059 60.7539 575.918 59.2012 575.637 57.9121C575.355 56.623 574.939 55.6094 574.389 54.8711C573.85 54.1328 573.188 53.6289 572.402 53.3594C571.617 53.0781 570.691 52.9375 569.625 52.9375C568.559 52.9375 567.639 53.1367 566.865 53.5352C566.092 53.9336 565.465 54.5371 564.984 55.3457C564.105 56.8574 563.666 59.3184 563.666 62.7285C563.666 66.209 564.217 68.6875 565.318 70.1641C566.338 71.5117 567.996 72.1855 570.293 72.1855C572.391 72.1855 573.891 71.4414 574.793 69.9531C575.637 68.5234 576.059 66.0625 576.059 62.5703ZM592.828 75.7715C592.805 76.0059 592.664 76.123 592.406 76.123L583.547 76.0703C583.348 76.0703 583.242 75.9297 583.23 75.6484L583.617 72.1855C583.641 71.998 583.734 71.8867 583.898 71.8516L586.131 72.0098V53.0254C585.264 53.0957 584.654 53.1309 584.303 53.1309C583.951 53.1309 583.729 53.0898 583.635 53.0078C583.553 52.9141 583.5 52.791 583.477 52.6387L583.125 49.7559C583.148 49.4395 583.289 49.2578 583.547 49.2109C587.062 48.8477 590.537 48.666 593.971 48.666C598.764 48.666 601.746 50.1953 602.918 53.2539C603.328 54.2969 603.533 55.4629 603.533 56.752C603.533 58.0293 603.381 59.1016 603.076 59.9688C602.783 60.8242 602.367 61.5625 601.828 62.1836C600.75 63.4258 599.279 64.2285 597.416 64.5918L602.021 71.8691L605.133 71.6055C605.52 71.6289 605.713 71.8281 605.713 72.2031L605.73 74.9629C605.73 75.584 605.514 75.9062 605.08 75.9297L600.088 76.0527C599.854 76.0527 599.672 75.9355 599.543 75.7012L593.602 64.7852C592.266 64.7617 591.064 64.6973 589.998 64.5918L590.051 72.1328H592.424C592.611 72.1328 592.705 72.2441 592.705 72.4668L592.828 75.7715ZM594.639 52.3574C593.701 52.3574 592.119 52.4688 589.893 52.6914L589.963 61.4453C590.982 61.5039 592.043 61.5332 593.145 61.5332C594.246 61.5332 595.154 61.457 595.869 61.3047C596.596 61.1406 597.223 60.8828 597.75 60.5312C598.887 59.7695 599.455 58.5918 599.455 56.998C599.455 55.3926 599.051 54.2207 598.242 53.4824C597.445 52.7324 596.244 52.3574 594.639 52.3574ZM629.971 75.9473C629.713 75.9473 629.572 75.8301 629.549 75.5957L629.672 72.6426C629.695 72.4199 629.789 72.3086 629.953 72.3086H631.166L630.111 52.498L624.504 75.8242C624.457 76.0586 624.316 76.1758 624.082 76.1758L620.355 76.2285C620.145 76.2285 620.01 76.0996 619.951 75.8418L614.133 53.3066L613.623 72.2031L615.24 72.1328C615.393 72.1328 615.486 72.2441 615.521 72.4668L615.82 75.5957C615.797 75.8301 615.656 75.9473 615.398 75.9473L607.77 76.0703C607.57 76.0703 607.465 75.9297 607.453 75.6484L607.664 72.3613C607.688 72.1738 607.781 72.0625 607.945 72.0273L610.266 72.2383L611.303 53.2363L609.123 53.4473C608.889 53.4473 608.766 53.3184 608.754 53.0605L608.596 49.791C608.619 49.5684 608.76 49.4453 609.018 49.4219L616.225 49.0352C616.564 49.0352 616.781 49.1992 616.875 49.5273L622.465 71.8164L628.02 49.6855C628.09 49.3574 628.307 49.1934 628.67 49.1934L635.578 49.2461C635.719 49.2695 635.818 49.3047 635.877 49.3516C635.947 49.3867 635.988 49.4746 636 49.6152L636.193 53.0605C636.17 53.2012 636.141 53.3008 636.105 53.3594C636.082 53.418 636.006 53.4473 635.877 53.4473L633.715 53.4297L634.91 72.2559L637.248 72.2031C637.412 72.2383 637.506 72.3496 637.529 72.5371L637.213 75.4727C637.166 75.7539 637.061 75.8945 636.896 75.8945L629.971 75.9473ZM639.797 75.9648C639.539 75.9414 639.41 75.7539 639.41 75.4023V72.4668C639.41 72.2793 639.445 72.1504 639.516 72.0801C639.598 72.0098 639.738 71.9688 639.938 71.957L641.555 72.0273L648.516 49.457C648.586 49.2344 648.727 49.1113 648.938 49.0879L652.928 48.9473C653.139 48.959 653.285 49.0938 653.367 49.3516L660.961 71.9043L662.561 71.8516C662.889 71.875 663.053 72.0625 663.053 72.4141V75.1914C663.053 75.3906 663.012 75.5195 662.93 75.5781C662.848 75.6367 662.707 75.666 662.508 75.666H654.369C654.158 75.666 654.035 75.6191 654 75.5254C653.965 75.4316 653.947 75.3027 653.947 75.1387L654.299 72.5723C654.322 72.373 654.369 72.2441 654.439 72.1855C654.51 72.1152 654.639 72.0801 654.826 72.0801L656.83 72.0273L655.318 67.3516L646.617 67.1758L645.193 72.2734L647.32 72.0625C647.461 72.0625 647.555 72.0918 647.602 72.1504C647.66 72.209 647.701 72.3145 647.725 72.4668L647.988 75.1387C647.965 75.3379 647.912 75.4727 647.83 75.543C647.76 75.6133 647.637 75.6543 647.461 75.666L639.797 75.9648ZM647.443 64.1875H654.281L650.59 52.8848L647.443 64.1875ZM688.699 52.709C688.699 52.9668 688.564 53.0957 688.295 53.0957L686.062 53.043L686.027 75.3145C686.027 75.6309 685.887 75.8008 685.605 75.8242L681.352 76.0527C681.199 76.0527 681.064 75.9238 680.947 75.666L670.594 52.7266L671.016 71.957L673.775 71.7812C673.939 71.7812 674.033 71.8926 674.057 72.1152L674.355 75.5957C674.332 75.8301 674.191 75.9473 673.934 75.9473L665.426 75.8945C665.262 75.8945 665.156 75.7539 665.109 75.4727L664.793 72.5371C664.816 72.3145 664.91 72.2031 665.074 72.2031L667.834 72.1328V53.1309L664.617 53.2715C664.488 53.2598 664.406 53.2305 664.371 53.1836C664.348 53.125 664.324 53.0254 664.301 52.8848L664.494 49.791C664.518 49.5684 664.658 49.4453 664.916 49.4219L672.65 49.0352C672.955 49.0586 673.172 49.2227 673.301 49.5273L683.268 71.9219L682.811 52.9551L680.086 52.8672C679.957 52.8672 679.875 52.8379 679.84 52.7793C679.805 52.7207 679.781 52.6211 679.77 52.4805L679.875 49.5625C679.898 49.3164 680.039 49.1934 680.297 49.1934L688.154 49.1582C688.283 49.1699 688.365 49.2051 688.4 49.2637C688.436 49.3105 688.459 49.4102 688.471 49.5625L688.699 52.709ZM710.443 49.1055C710.912 49.1055 711.158 49.334 711.182 49.791L710.971 57.4551C710.971 57.7598 710.842 57.9121 710.584 57.9121L707.631 57.9824C707.408 57.9824 707.285 57.8477 707.262 57.5781L706.893 53.0605C705.463 52.709 704.145 52.5332 702.938 52.5332C701.73 52.5332 700.711 52.7148 699.879 53.0781C699.047 53.4297 698.361 54.0039 697.822 54.8008C696.779 56.3477 696.258 58.9316 696.258 62.5527C696.258 68.0254 697.582 71.3008 700.23 72.3789C701.098 72.7305 702.152 72.9062 703.395 72.9062C704.637 72.9062 705.949 72.6836 707.332 72.2383L707.244 69.8828C707.268 69.6719 707.408 69.543 707.666 69.4961L710.584 69.0039C710.783 69.0039 710.906 69.1387 710.953 69.4082L711.656 76.2637C711.656 76.4512 711.521 76.5566 711.252 76.5801L708.229 76.8438C707.76 76.8438 707.514 76.6152 707.49 76.1582L707.455 75.4199C705.826 76.2871 704.104 76.7207 702.287 76.7207C700.482 76.7207 698.959 76.4102 697.717 75.7891C696.486 75.168 695.455 74.2539 694.623 73.0469C692.947 70.5977 692.109 67.0352 692.109 62.3594C692.109 57.7188 693.047 54.2734 694.922 52.0234C696.633 49.9609 699.076 48.9297 702.252 48.9297C704.244 48.9297 705.92 49.1523 707.279 49.5977L710.443 49.1055ZM736.195 76.7207C736.148 76.9902 736.025 77.125 735.826 77.125L732.521 77.0547C732.264 77.0547 732.135 76.9023 732.135 76.5977L732.1 75.5254L716.402 75.9648C716.133 75.9648 715.992 75.8242 715.98 75.543L716.086 72.3086C716.086 72.1328 716.18 72.0215 716.367 71.9746L718.564 72.2734L718.424 53.1309L716.209 53.3242C715.998 53.3242 715.893 53.1953 715.893 52.9375L716.086 49.7383C716.109 49.5156 716.25 49.3926 716.508 49.3691L734.068 48.7012C734.42 48.7246 734.596 48.8828 734.596 49.1758L734.244 55.5918C734.244 55.8613 734.15 55.9961 733.963 55.9961L731.01 55.8906C730.846 55.8789 730.746 55.8379 730.711 55.7676C730.676 55.6973 730.652 55.5859 730.641 55.4336L730.535 52.4102L722.221 52.8496L722.344 61.041L730.975 60.4961C731.268 60.4961 731.426 60.6309 731.449 60.9004L731.572 63.8535C731.549 64.123 731.426 64.2578 731.203 64.2578L722.379 64.3809L722.502 72.4141L731.994 72.0977L731.924 69.7949C731.947 69.3613 732.193 69.1328 732.662 69.1094L735.51 69.1973C735.779 69.2207 735.914 69.3262 735.914 69.5137L736.195 76.7207Z" fill="white"/>
<path d="M322.512 80.2363C325.066 80.2363 326.344 79.2637 326.344 77.3184C326.344 76.5098 326.344 75.6367 326.344 74.6992L326.309 71.7812C326.309 70.7852 326.303 69.7656 326.291 68.7227C326.244 64.5508 326.209 61.7383 326.186 60.2852L323.127 60.4258C322.939 60.4023 322.834 60.2734 322.811 60.0391L322.547 56.8574C322.559 56.5645 322.705 56.4121 322.986 56.4004L329.385 56.0137C329.584 56.0371 329.707 56.1719 329.754 56.418L329.631 59.7402C329.666 60.3262 329.695 61 329.719 61.7617C329.977 68.207 330.105 72.4492 330.105 74.4883C330.105 76.5156 330.018 78.0508 329.842 79.0938C329.666 80.1484 329.32 81.0273 328.805 81.7305C327.785 83.1602 325.863 83.875 323.039 83.875C322.816 83.875 322.682 83.7402 322.635 83.4707L322.107 80.5879C322.107 80.3535 322.242 80.2363 322.512 80.2363ZM329.895 49.4395C329.895 51.5137 329.238 52.5508 327.926 52.5508C325.734 52.5508 324.639 51.9883 324.639 50.8633C324.639 48.8359 325.295 47.8223 326.607 47.8223C328.799 47.8223 329.895 48.3613 329.895 49.4395ZM348.369 61.0059C345.205 59.9277 342.973 59.3887 341.672 59.3887C340.266 59.3887 339.316 59.7344 338.824 60.4258C338.625 60.6953 338.525 61.0293 338.525 61.4277C338.525 61.8262 338.572 62.1719 338.666 62.4648C338.76 62.7578 338.93 63.0156 339.176 63.2383C339.668 63.707 340.617 64.0527 342.023 64.2754C343.43 64.498 344.654 64.7441 345.697 65.0137C346.752 65.2715 347.596 65.6113 348.229 66.0332C348.873 66.4434 349.33 66.9648 349.6 67.5977C349.881 68.2305 350.021 69.0449 350.021 70.041C350.021 71.0254 349.875 71.8984 349.582 72.6602C349.289 73.4219 348.873 74.0664 348.334 74.5938C347.244 75.6367 345.732 76.1582 343.799 76.1582C342.475 76.1582 340.951 75.9941 339.229 75.666L339.527 77.125C339.527 77.3125 339.393 77.418 339.123 77.4414L336.1 77.7051C335.654 77.7051 335.408 77.4766 335.361 77.0195L334.869 71.7988C334.869 71.5879 335.01 71.459 335.291 71.4121L338.033 70.9199C338.232 70.9199 338.355 71.0547 338.402 71.3242L338.613 72.4844C340.312 72.7539 341.713 72.8887 342.814 72.8887C343.916 72.8887 344.736 72.6602 345.275 72.2031C345.814 71.7344 346.084 71.1191 346.084 70.3574C346.084 69.6426 345.797 69.1328 345.223 68.8281C344.719 68.5469 343.729 68.2949 342.252 68.0723C340.787 67.8379 339.58 67.5859 338.631 67.3164C337.682 67.0352 336.902 66.666 336.293 66.209C335.133 65.3418 334.553 63.8711 334.553 61.7969C334.553 59.9922 335.098 58.5508 336.188 57.4727C337.348 56.3359 338.971 55.7676 341.057 55.7676C342.287 55.7676 343.705 56.1777 345.311 56.998L344.977 55.6094C344.977 55.3281 345.1 55.1758 345.346 55.1523L348.826 54.8711C349.014 54.8711 349.107 55.0059 349.107 55.2754L348.721 60.6367C348.709 60.8828 348.592 61.0059 348.369 61.0059Z" fill="#FFF500"/>
<rect x="465" y="82" width="271" height="5" rx="2.5" fill="#06D6A0"/>
</svg>
